
<svg width="25" height="24" viewBox="0 0 25 24" fill="none" xmlns="http://www.w3.org/2000/svg">
<g clip-path="url(#clip0_59_20)">
<mask id="mask0_59_20" style="mask-type:luminance" maskUnits="userSpaceOnUse" x="0" y="0" width="25" height="24">
<path d="M24.7183 0H0.718262V24H24.7183V0Z" fill="white"/>
</mask>
<g mask="url(#mask0_59_20)">
<path d="M5.72179 14.1695C5.50709 14.245 5.30359 14.3444 5.11442 14.4643C4.27236 14.1159 3.48363 13.5975 2.80007 12.9093C0.0243258 10.1429 0.0243258 5.64576 2.80007 2.87938C3.08403 2.59565 3.38219 2.34029 3.70165 2.11331C4.23408 1.73737 5.07177 2.36867 5.01498 2.95741C4.8233 4.98608 5.50481 7.09278 7.06661 8.64621C7.66269 9.24452 8.33913 9.71354 9.06151 10.0537C7.16483 10.3669 5.71826 12.0145 5.71826 14C5.71826 14.0568 5.71944 14.1133 5.72179 14.1695Z" fill="#707070"/>
<path d="M11.2515 5.46162L11.7783 7.2082C11.7263 7.2499 11.6752 7.29252 11.6248 7.33604L10.0895 6.29426L8.31272 7.49992L8.9275 5.46162L7.21826 4.16936L9.37339 4.10941L10.0895 2.11108L10.8056 4.10941L12.9607 4.16936L11.2515 5.46162Z" fill="#707070"/>
<path d="M17.326 4.27594L18.434 3.44331L17.0423 3.41L16.5761 2.11108L16.11 3.41L14.7182 3.44331L15.8262 4.27594L15.4276 5.59485L16.5761 4.8155L17.7246 5.59485L17.326 4.27594Z" fill="#707070"/>
<path d="M7.71826 21H20.7183C22.9274 21 24.7183 19.2091 24.7183 17C24.7183 15.1238 23.4266 13.5494 21.684 13.1174C21.7066 12.9147 21.7183 12.7087 21.7183 12.5C21.7183 9.46243 19.2558 7 16.2183 7C13.6988 7 11.575 8.69403 10.9238 11.0052C10.8557 11.0017 10.7872 11 10.7183 11C8.50912 11 6.71826 12.7909 6.71826 15C6.71826 15.0568 6.71944 15.1133 6.72179 15.1695C5.55475 15.5803 4.71826 16.6925 4.71826 18C4.71826 19.6569 6.06141 21 7.71826 21Z" fill="#707070"/>
</g>
</g>
<defs>
<clipPath id="clip0_59_20">
<rect width="25" height="24" fill="white"/>
</clipPath>
</defs>
</svg>